#tb 0: 33333/1000000
0,          0,          0,        1,    38016, 0x501e6abe
0,          1,          1,        1,    38016, 0x84976f13
0,          2,          2,        1,    38016, 0x8c487acb
0,          3,          3,        1,    38016, 0x70998800
0,          4,          4,        1,    38016, 0x51ac9416
0,          5,          5,        1,    38016, 0xd1da94b7
0,          6,          6,        1,    38016, 0x52d691e8
0,          7,          7,        1,    38016, 0x3ca3907a
0,          8,          8,        1,    38016, 0x5f62929f
0,          9,          9,        1,    38016, 0x81ec98ac
0,         10,         10,        1,    38016, 0x72499f12
0,         11,         11,        1,    38016, 0x7598a716
0,         12,         12,        1,    38016, 0x38ada96f
0,         13,         13,        1,    38016, 0x78c8a727
0,         14,         14,        1,    38016, 0xe2d79d2d
0,         15,         15,        1,    38016, 0x84a2925a
0,         16,         16,        1,    38016, 0x131b8d70
0,         17,         17,        1,    38016, 0x32a78242
0,         18,         18,        1,    38016, 0x29f583e5
0,         19,         19,        1,    38016, 0x4a7f7305
0,         20,         20,        1,    38016, 0x80885f56
0,         21,         21,        1,    38016, 0xa73c4f61
0,         22,         22,        1,    38016, 0xe54d422b
0,         23,         23,        1,    38016, 0xa8c03188
0,         24,         24,        1,    38016, 0xa02a294e
0,         25,         25,        1,    38016, 0xc84e2366
0,         26,         26,        1,    38016, 0xe21112ca
0,         27,         27,        1,    38016, 0x3e450594
0,         28,         28,        1,    38016, 0x2499017c
0,         29,         29,        1,    38016, 0xecb1effa
0,         30,         30,        1,    38016, 0xa0f8eb28
0,         31,         31,        1,    38016, 0xa396e800
0,         32,         32,        1,    38016, 0xae1be010
0,         33,         33,        1,    38016, 0x4b41dff5
0,         34,         34,        1,    38016, 0x9172e319
0,         35,         35,        1,    38016, 0xb82ee262
0,         36,         36,        1,    38016, 0x151de59f
0,         37,         37,        1,    38016, 0x799deabd
0,         38,         38,        1,    38016, 0x008dee95
0,         39,         39,        1,    38016, 0x5ad502ce
0,         40,         40,        1,    38016, 0xdeb321f1
0,         41,         41,        1,    38016, 0x82734a09
0,         42,         42,        1,    38016, 0x1ccb6ddd
0,         43,         43,        1,    38016, 0x266584f0
0,         44,         44,        1,    38016, 0x46349e73
0,         45,         45,        1,    38016, 0x0b8cac83
0,         46,         46,        1,    38016, 0x7bcd9f49
0,         47,         47,        1,    38016, 0x4f5d7521
0,         48,         48,        1,    38016, 0x7709250c
0,         49,         49,        1,    38016, 0xf8eef5ad
0,         50,         50,        1,    38016, 0x2c5d28e3
0,         51,         51,        1,    38016, 0xdb116d69
0,         52,         52,        1,    38016, 0xb66c39d6
0,         53,         53,        1,    38016, 0xacecc966
0,         54,         54,        1,    38016, 0xaffd76af
0,         55,         55,        1,    38016, 0xd2b05d04
0,         56,         56,        1,    38016, 0x4d18582a
0,         57,         57,        1,    38016, 0x23635ca7
0,         58,         58,        1,    38016, 0x7ccc58f1
0,         59,         59,        1,    38016, 0xce9a4cc6
0,         60,         60,        1,    38016, 0xbeb259d3
0,         61,         61,        1,    38016, 0x0b28714c
0,         62,         62,        1,    38016, 0x642a8fdd
0,         63,         63,        1,    38016, 0x937bb589
0,         64,         64,        1,    38016, 0x1a48c407
0,         65,         65,        1,    38016, 0x8b44cd79
0,         66,         66,        1,    38016, 0xf35cde31
0,         67,         67,        1,    38016, 0xfc05fad9
0,         68,         68,        1,    38016, 0x44102111
0,         69,         69,        1,    38016, 0x832f5041
0,         70,         70,        1,    38016, 0x41177c71
0,         71,         71,        1,    38016, 0x723b88b5
0,         72,         72,        1,    38016, 0x05548f81
0,         73,         73,        1,    38016, 0xd9dd7995
0,         74,         74,        1,    38016, 0xed0d6226
0,         75,         75,        1,    38016, 0x458b5ce2
0,         76,         76,        1,    38016, 0xc7ef69af
0,         77,         77,        1,    38016, 0x936a7022
0,         78,         78,        1,    38016, 0x7a446c3d
0,         79,         79,        1,    38016, 0x9b2b73ee
0,         80,         80,        1,    38016, 0xa47779cd
0,         81,         81,        1,    38016, 0x7be47981
0,         82,         82,        1,    38016, 0x5d1778ac
0,         83,         83,        1,    38016, 0xf1f578fc
0,         84,         84,        1,    38016, 0x865b7edf
0,         85,         85,        1,    38016, 0x0a208252
0,         86,         86,        1,    38016, 0x22f07570
0,         87,         87,        1,    38016, 0x93036cef
0,         88,         88,        1,    38016, 0xa04b6120
0,         89,         89,        1,    38016, 0x80b249fe
0,         90,         90,        1,    38016, 0x5fe5317e
0,         91,         91,        1,    38016, 0x75bd0770
0,         92,         92,        1,    38016, 0x0607da6e
0,         93,         93,        1,    38016, 0x11cbb3a7
0,         94,         94,        1,    38016, 0xbb8b9335
0,         95,         95,        1,    38016, 0xa2bc75d9
0,         96,         96,        1,    38016, 0x58c160dd
0,         97,         97,        1,    38016, 0x742b55dc
0,         98,         98,        1,    38016, 0x62b24540
0,         99,         99,        1,    38016, 0x14f4381b
0,        100,        100,        1,    38016, 0x6494334d
0,        101,        101,        1,    38016, 0xb3772676
0,        102,        102,        1,    38016, 0x0c312715
0,        103,        103,        1,    38016, 0x8b401fc9
0,        104,        104,        1,    38016, 0xa851125a
0,        105,        105,        1,    38016, 0x3171092b
0,        106,        106,        1,    38016, 0x5c3603aa
0,        107,        107,        1,    38016, 0xab56fc95
0,        108,        108,        1,    38016, 0x5c76fcb5
0,        109,        109,        1,    38016, 0xbf13f3b4
0,        110,        110,        1,    38016, 0xbdb5ed1b
0,        111,        111,        1,    38016, 0xb511ea7c
0,        112,        112,        1,    38016, 0xec84df90
0,        113,        113,        1,    38016, 0x69aed672
0,        114,        114,        1,    38016, 0x72a6d334
0,        115,        115,        1,    38016, 0x7ec5c6a7
0,        116,        116,        1,    38016, 0x837abc3e
0,        117,        117,        1,    38016, 0x5ef7be01
0,        118,        118,        1,    38016, 0x173bb950
0,        119,        119,        1,    38016, 0xf572ab31
0,        120,        120,        1,    38016, 0xe704a2d9
0,        121,        121,        1,    38016, 0x26359bb5
0,        122,        122,        1,    38016, 0x00868e2d
0,        123,        123,        1,    38016, 0x72ef879e
0,        124,        124,        1,    38016, 0x510b7b07
0,        125,        125,        1,    38016, 0x947876ff
0,        126,        126,        1,    38016, 0x934073a7
0,        127,        127,        1,    38016, 0xf7c36a15
0,        128,        128,        1,    38016, 0xbcc86424
0,        129,        129,        1,    38016, 0x55b65fb0
0,        130,        130,        1,    38016, 0x6c4b5c4e
0,        131,        131,        1,    38016, 0xb315557a
0,        132,        132,        1,    38016, 0x154f503e
0,        133,        133,        1,    38016, 0x7abd44da
0,        134,        134,        1,    38016, 0x291940c6
0,        135,        135,        1,    38016, 0xc2264202
0,        136,        136,        1,    38016, 0xbd703e12
0,        137,        137,        1,    38016, 0x39193a9c
0,        138,        138,        1,    38016, 0x086637de
0,        139,        139,        1,    38016, 0x494c3be2
0,        140,        140,        1,    38016, 0x2d523e06
0,        141,        141,        1,    38016, 0x3843448a
0,        142,        142,        1,    38016, 0x307f4bd3
0,        143,        143,        1,    38016, 0xee074e3f
0,        144,        144,        1,    38016, 0x760d534a
0,        145,        145,        1,    38016, 0xbfa251cc
0,        146,        146,        1,    38016, 0x49094e22
0,        147,        147,        1,    38016, 0xda6a4f16
0,        148,        148,        1,    38016, 0xa3304fd5
0,        149,        149,        1,    38016, 0x99995068
